<svg xmlns="http://www.w3.org/2000/svg" xmlns:xlink="http://www.w3.org/1999/xlink" width="1200" height="500" viewBox="0 0 1200 500">
  <defs>
    <clipPath id="clip-path">
      <rect id="Yuvarlak_Köşeli_Dikdörtgen_14" data-name="Yuvarlak Köşeli Dikdörtgen 14" width="1200" height="500" rx="10" transform="translate(360 6483)" fill="#319cff"/>
    </clipPath>
  </defs>
  <g id="Yuvarlak_Köşeli_Dikdörtgen_14-2" data-name="Yuvarlak Köşeli Dikdörtgen 14" transform="translate(-360 -6483)">
    <rect id="Yuvarlak_Köşeli_Dikdörtgen_14-3" data-name="Yuvarlak Köşeli Dikdörtgen 14" width="1200" height="500" rx="10" transform="translate(360 6483)" fill="#319cff"/>
    <g id="Clip" clip-path="url(#clip-path)">
      <path id="Şekil_11" data-name="Şekil 11" d="M1039.64,7674.447a14.006,14.006,0,0,1,7.182-27.077c294.706,78.162,604.75,1.384,829.375-205.384a14,14,0,1,1,18.968,20.607c-172.005,158.333-392.627,242.771-619.24,242.784A920.833,920.833,0,0,1,1039.64,7674.447Zm207.573-61.177A828.506,828.506,0,0,1,1063.1,7586c-204.928-54.352-379.018-183.634-490.206-364.032a14,14,0,1,1,23.844-14.7c107.409,174.267,275.584,299.149,473.542,351.653a800.739,800.739,0,0,0,177.885,26.353,14,14,0,0,1-.465,28C1247.536,7613.278,1247.375,7613.275,1247.213,7613.27Zm-428.556-29.984a13.745,13.745,0,0,1-3.427-1.423c-132.593-76.716-244.79-186.958-324.46-318.8-79.509-131.582-124.952-281.862-131.418-434.6a14.005,14.005,0,0,1,27.985-1.182c12.707,300.124,182.04,579.976,441.917,730.349a14.007,14.007,0,0,1-10.6,25.664Zm784.91-41.695a14,14,0,0,1-2.18-26.3c219.517-99.067,380.787-289.242,442.458-521.769a803.854,803.854,0,0,0,23.692-134.565,14.007,14.007,0,1,1,27.9,2.476A832.109,832.109,0,0,1,2070.92,7000.7c-63.839,240.7-230.779,437.569-458.009,540.114a13.934,13.934,0,0,1-9.344.775Zm-515.78-48.678a14.005,14.005,0,0,1,7.18-27.075c312.317,82.831,638.533-57.051,793.3-340.163a14,14,0,1,1,24.577,13.433c-76.7,140.306-200.094,253.042-347.465,317.438-92.972,40.63-190.917,61.1-289.734,61.1A731.874,731.874,0,0,1,1087.786,7492.913Zm96.249-79.941a640.109,640.109,0,0,1-71.175-14.6C920.717,7347.408,767.127,7212.6,691.468,7028.51a14.006,14.006,0,0,1,25.907-10.652c72.3,175.917,219.066,304.741,402.667,353.434a612.954,612.954,0,0,0,68.047,13.967,14.005,14.005,0,0,1-2,27.863A14.117,14.117,0,0,1,1184.035,7412.972Zm-314.97-19.726a14.013,14.013,0,0,1-4.288-1.964A726.463,726.463,0,0,1,559.992,6650.14a14.006,14.006,0,0,1,27.489,5.389,698.479,698.479,0,0,0,293.055,712.594,14.011,14.011,0,0,1-11.471,25.123Zm581.944-1.156a14.005,14.005,0,0,1-.533-26.93c200.391-61.512,352.07-219.045,405.738-421.4a14.005,14.005,0,1,1,27.074,7.18c-56.163,211.77-214.891,376.63-424.594,441a13.934,13.934,0,0,1-7.686.152Zm-312.7-89.678A526.662,526.662,0,0,1,938.8,7200.762a14.007,14.007,0,0,1,17.721-21.7,503.249,503.249,0,0,0,537.736,62.436,14,14,0,1,1,12.265,25.181,530.628,530.628,0,0,1-368.208,35.73Zm896.021-19.541a14.028,14.028,0,0,1-8.274-20.993,888.953,888.953,0,0,0-19.727-974.5,14,14,0,0,1,23.1-15.833,916.951,916.951,0,0,1,20.346,1005.224,14.016,14.016,0,0,1-15.447,6.1Zm-871.786-71.833c-134.837-35.761-245.278-134.942-295.434-265.31a14.007,14.007,0,0,1,26.146-10.058c46.934,122.01,150.291,214.829,276.467,248.293a14.005,14.005,0,1,1-7.18,27.075Zm244.256-8.352a14.006,14.006,0,0,1-.948-26.8,407.741,407.741,0,0,0,263.032-281.818,14.005,14.005,0,1,1,27.075,7.182A435.7,435.7,0,0,1,1414.9,7202.4a13.937,13.937,0,0,1-8.1.286Zm229.6-34.511a14.008,14.008,0,0,1-6.3-23.439A503.33,503.33,0,0,0,1759.41,6657.1a14.005,14.005,0,0,1,27.014-7.4,531.338,531.338,0,0,1-136.517,514.85,14.028,14.028,0,0,1-13.505,3.63Zm-449-50.864c-166.6-44.186-273.569-205.95-248.809-376.273a14,14,0,1,1,27.717,4.034c-22.711,156.237,75.424,304.628,228.272,345.165a309.657,309.657,0,0,0,181.793-6.76,14,14,0,1,1,9.206,26.45,337.588,337.588,0,0,1-198.179,7.384Zm-368.57-63.869a13.964,13.964,0,0,1-8.661-6.746,528.193,528.193,0,0,1-48.783-393.31c3.488-13.149,7.515-26.294,11.968-39.071a14,14,0,1,1,26.448,9.222c-4.218,12.1-8.034,24.562-11.341,37.031a500.308,500.308,0,0,0,46.208,372.543,14,14,0,0,1-15.839,20.331Zm1123.337-7.974q-.587-.155-1.168-.36a14.008,14.008,0,0,1-8.435-17.919c6.855-19.058,12.976-38.688,18.194-58.359A699.074,699.074,0,0,0,1848.962,6390a14,14,0,1,1,23-15.973,727,727,0,0,1,105.869,601.986c-5.422,20.443-11.786,40.852-18.912,60.657a13.992,13.992,0,0,1-16.753,8.8Zm-708.5-17.931c-.418-.07-.831-.164-1.232-.269a14.006,14.006,0,0,1,5.979-27.337c109.6,18.852,213.786-48.108,242.336-155.756a14.005,14.005,0,1,1,27.074,7.182c-28.638,107.978-124.565,179.761-232.381,179.767A246.119,246.119,0,0,1,1233.667,7027.539Zm285.63-14.716a14.015,14.015,0,0,1-7.1-22.581,311.475,311.475,0,0,0,38.456-343.991,14.007,14.007,0,0,1,24.867-12.9,339.5,339.5,0,0,1-41.928,374.97,14.021,14.021,0,0,1-14.3,4.5ZM484.659,6999.205a14,14,0,0,1-10.006-10.136,824.878,824.878,0,0,1,3.147-410.892c79.215-298.684,315.93-526.051,617.767-593.374a14,14,0,1,1,6.1,27.335C810.075,6077.18,581.4,6296.82,504.875,6585.358a796.8,796.8,0,0,0-3.054,396.9,14,14,0,0,1-17.162,16.944Zm597.146-69.476a13.957,13.957,0,0,1-8.038-5.738A241.552,241.552,0,0,1,1176.4,6568.658a14.006,14.006,0,1,1,11.374,25.6,213.539,213.539,0,0,0-90.735,314.137,14,14,0,0,1-15.23,21.335Zm156.741-5.259c-74.454-19.749-118.962-96.387-99.213-170.843a139.332,139.332,0,0,1,147.182-103.376,14.008,14.008,0,0,1-2.466,27.907,111.7,111.7,0,1,0,11.267,221.01,14.008,14.008,0,0,1,5.274,27.515,138.442,138.442,0,0,1-62.045-2.213Zm138.36-54.093a14.021,14.021,0,0,1-8.237-21.049,111.866,111.866,0,0,0,2.271-115.978,14,14,0,1,1,24.219-14.063,139.881,139.881,0,0,1-2.84,145.053,14.014,14.014,0,0,1-15.414,6.037Zm-720.033-14.8a14.016,14.016,0,0,1-10.362-12.347A631.333,631.333,0,0,1,851.5,6322.367a14.006,14.006,0,0,1,18.78,20.784A603.331,603.331,0,0,0,674.42,6840.841a14,14,0,0,1-12.76,15.148q-.618.054-1.228.054A13.907,13.907,0,0,1,656.873,6855.58Zm194.076-7.069a14.012,14.012,0,0,1-10.335-12.03,436.788,436.788,0,0,1,183.111-404.026,14,14,0,0,1,16.082,22.931,408.782,408.782,0,0,0-171.346,378.066,14,14,0,0,1-12.411,15.436,14.258,14.258,0,0,1-1.54.083A13.914,13.914,0,0,1,850.949,6848.511Zm841.782-61.753a14.014,14.014,0,0,1-10.4-13.009c-5.343-140.211-84.46-270.259-206.478-339.392a14,14,0,1,1,13.809-24.367c130.4,73.876,214.952,212.852,220.658,362.69a14.007,14.007,0,0,1-13.462,14.533q-.26.01-.518.009A14.165,14.165,0,0,1,1692.731,6786.758Zm193.227-17.925a14.02,14.02,0,0,1-10.391-12.768c-9.278-167.807-89.25-325.344-219.4-432.213a14.006,14.006,0,0,1,17.775-21.65c136.2,111.836,219.885,276.7,229.6,452.314a14,14,0,0,1-13.209,14.757q-.4.023-.8.023A13.9,13.9,0,0,1,1885.958,6768.833Zm-400.2-40.449a14,14,0,0,1-9.65-8.939,213.938,213.938,0,0,0-189.736-143.235,14,14,0,0,1,1.61-27.962,241.919,241.919,0,0,1,214.578,161.994,14,14,0,0,1-16.8,18.143Zm-473.978-122.226a14.02,14.02,0,0,1-7.552-22.022A341.358,341.358,0,0,1,1234.41,6452.5a14.008,14.008,0,0,1,3.307,27.82A313.152,313.152,0,0,0,1026.527,6601.1a14.028,14.028,0,0,1-14.745,5.063Zm503.85-17.223a13.919,13.919,0,0,1-6.948-4.327,309.661,309.661,0,0,0-154.549-95.964,316.831,316.831,0,0,0-33.159-6.915,14,14,0,1,1,4.231-27.687,344.369,344.369,0,0,1,36.109,7.528A337.525,337.525,0,0,1,1529.789,6566.2a14,14,0,0,1-14.157,22.738ZM399.306,6571.848a14,14,0,0,1-9.947-17.127,913.307,913.307,0,0,1,257.1-431.832,14,14,0,0,1,19.188,20.4A885.332,885.332,0,0,0,416.433,6561.9a13.991,13.991,0,0,1-17.127,9.946Zm1640.867-22.717a14,14,0,0,1-9.72-9.138c-84.884-256.469-291.243-450.878-552.012-520.039a803.284,803.284,0,0,0-138.531-24.032,14.008,14.008,0,0,1,2.339-27.917,832.156,832.156,0,0,1,143.372,24.875c269.941,71.593,483.558,272.828,571.426,538.306a14,14,0,0,1-16.874,17.944Zm-333.252-23.193a13.965,13.965,0,0,1-8.233-6.032c-74.061-116.667-192.35-197.519-329.194-224.1a14,14,0,0,1,5.339-27.5c144.409,28.044,269.313,113.422,347.506,236.584a14,14,0,0,1-15.418,21.041ZM874.176,6471.58a14.016,14.016,0,0,1-7.141-22.53c91.15-108.933,224.5-177.757,365.851-188.835a14.007,14.007,0,0,1,2.186,27.929c-133.89,10.488-260.2,75.687-346.554,178.885a14.024,14.024,0,0,1-14.342,4.55ZM670.954,6415.7a14.016,14.016,0,0,1-8.18-21.136c78.446-121.548,190.5-216.209,324.053-273.743a722.84,722.84,0,0,1,428.64-45.393,14.006,14.006,0,0,1-5.459,27.476c-278.7-55.35-569.528,67.965-723.7,306.844a14.009,14.009,0,0,1-15.356,5.952Zm701-22.581a404.13,404.13,0,0,0-176.425-4.254,14,14,0,1,1-5.432-27.478,432.03,432.03,0,0,1,188.566,4.533,14.007,14.007,0,1,1-6.709,27.2Zm405.493-93.057a13.923,13.923,0,0,1-6.345-3.675,692.393,692.393,0,0,0-224.86-151.844,14.008,14.008,0,0,1,10.847-25.831A720.392,720.392,0,0,1,1791,6276.673a14.006,14.006,0,0,1-13.554,23.39Zm-799.994-38.739a14,14,0,0,1-3.085-25.852,631.184,631.184,0,0,1,594.293-3.194,14.006,14.006,0,0,1-13.065,24.778,603.162,603.162,0,0,0-567.882,3.044,13.965,13.965,0,0,1-10.261,1.224Zm878.366-142.758c-102.574-89.04-221.653-151.973-353.925-187.054-194.936-51.7-395.55-36.708-580.145,43.348a14.006,14.006,0,1,1-11.144-25.7c190.436-82.586,397.385-98.055,598.469-44.723,136.439,36.187,259.278,101.112,365.108,192.974a14.006,14.006,0,1,1-18.363,21.154Z" fill="#1d88eb"/>
    </g>
  </g>
</svg>
